<svg width="50" height="50" viewBox="0 0 50 50" fill="none" xmlns="http://www.w3.org/2000/svg">
<g clip-path="url(#clip0_1_3)">
<path d="M37.8437 31.5825L50 27.349L48.573 22.6451L39.4812 25.8592L45.8797 14.3615L44.535 9.93039L32.825 14.0087L27.3052 0H22.8132L17.2852 14.0275L5.52145 9.93039L4.00129 14.9517L8.94987 21.1977L1.52289 23.1325L0 28.1538L11.8498 32.2827C11.8433 32.2863 11.8383 32.2921 11.8323 32.2951C12.3235 32.4479 12.6858 32.9289 12.6858 33.5079C12.6858 34.207 12.1579 34.7731 11.505 34.7731C10.8713 34.7731 10.3565 34.237 10.3291 33.5603C9.97993 33.9265 9.65047 34.3204 9.35499 34.7555C6.49121 38.9855 7.32447 44.7635 11.5215 48.0364C15.7201 51.3058 21.1686 50.3592 24.0039 46.1727C24.8986 44.8487 25.4331 43.3719 25.6162 41.8716L28.4706 46.0869L34.7272 41.2125L32.7225 38.2512L30.0385 40.3436L28.8418 38.5716C29.1378 37.7368 29.6964 36.9837 30.6086 36.2694C32.7674 34.5926 35.4426 35.0853 37.039 37.4358C38.5745 39.708 38.2609 42.6594 36.3005 44.1897C34.9591 45.2321 33.65 45.4907 32.0838 45.3714L31.802 49.9541C34.1428 50.1652 36.3707 49.642 38.7587 47.7795C42.977 44.4954 43.8289 38.738 40.9471 34.4898C40.0771 33.2028 39.0119 32.2328 37.8437 31.5825ZM25.0208 5.92555L27.6697 13.2392C26.8337 13.0234 25.9319 12.9029 25.0132 12.9029C24.0807 12.9029 23.2047 13.0234 22.3763 13.2392L25.0208 5.92555ZM20.138 43.1585C18.6837 45.3055 16.089 46.021 14.035 44.4201C11.9507 42.7975 11.7775 39.8591 13.2022 37.7532C14.655 35.6085 17.2463 34.8931 19.3267 36.5133C21.3857 38.1183 21.5623 41.0538 20.138 43.1585ZM32.7504 28.7547L33.3205 30.6354C31.6496 30.7883 29.9579 31.4632 28.4065 32.6713C26.814 33.9124 25.6968 35.4087 24.9452 36.9578C24.3104 35.4181 23.271 34.0112 21.8391 32.8965C20.2762 31.6795 18.54 31.047 16.8297 30.9488L17.3976 29.0692L8.26243 25.8875L15.7952 23.6922L15.8243 23.594L10.896 17.0318L19.8738 20.1589L20.6106 18.1264C21.8353 17.3633 23.1191 16.9924 25.0132 16.9924C26.6967 16.9924 28.219 17.3386 29.4409 18.1264L30.1783 20.1671L39.5974 16.7296L32.7504 28.7547Z" fill="#2196F3" fill-opacity="0.91"/>
</g>
<defs>
<clipPath id="clip0_1_3">
<rect width="50" height="50" fill="white"/>
</clipPath>
</defs>
</svg>
